<?xml version="1.0" encoding="UTF-8"?>
<svg width="18px" height="24px" viewBox="0 0 18 24" version="1.1" xmlns="http://www.w3.org/2000/svg" xmlns:xlink="http://www.w3.org/1999/xlink">
    <!-- Generator: Sketch 46.2 (44496) - http://www.bohemiancoding.com/sketch -->
    <title>Combined-Shape</title>
    <desc>Created with Sketch.</desc>
    <defs></defs>
    <g id="Symbols" stroke="none" stroke-width="1" fill="none" fill-rule="evenodd">
        <g id="Box-of-Jane---Footer-1" transform="translate(-208.000000, -168.000000)" fill-rule="nonzero" fill="#FFFFFF">
            <g id="Footer-#1" transform="translate(-9.000000, -13.000000)">
                <g id="Group-25" transform="translate(84.000000, 69.000000)">
                    <g id="Group-4">
                        <g id="Last-Col" transform="translate(0.000000, 73.000000)">
                            <path d="M141.041727,52.2255788 C141.549459,53.7062503 142.316076,54.388931 143.907911,54.388931 C145.606204,54.388931 147.013278,53.4526326 147.746062,52.2040841 C148.43776,51.0255408 148.736206,49.8356002 148.736206,48.1854816 C148.736206,44.2581344 146.087038,41.9933016 141.9811,41.9933016 C138.129127,41.9933016 135.240357,44.6385411 135.239804,48.2895259 C135.228787,48.8608805 135.385801,49.706487 135.861009,50.5202574 C136.144356,51.0054751 136.520082,51.4265359 137.004926,51.7718105 C137.511413,52.1324969 137.629607,52.8354794 137.26892,53.3419658 C136.908234,53.8484521 136.205252,53.9666463 135.698765,53.6059598 C134.946381,53.0701611 134.356513,52.4091203 133.916565,51.655731 C133.502208,50.946164 133.241225,50.193672 133.100857,49.4377188 C133.010981,48.9536901 132.982758,48.5449417 132.988655,48.2543355 C132.988655,43.3485309 136.927654,39.7415998 141.9811,39.7415998 C147.259148,39.7415998 150.987907,42.9294 150.987907,48.1854816 C150.987907,50.2222378 150.590776,51.8056507 149.688005,53.3438282 C148.576144,55.2382642 146.468657,56.6406328 143.907911,56.6406328 C142.296011,56.6406328 141.096148,56.1393324 140.229082,55.2439737 L138.564836,61.4254582 C138.403187,62.0258688 137.785416,62.3815553 137.185005,62.2199063 C136.584595,62.0582573 136.228908,61.440486 136.390557,60.8400756 C136.390557,60.8400756 138.200152,54.1187244 139.104949,50.7580489 C139.513645,49.2400372 138.911032,48.5030604 139.316069,46.9003458 C139.74486,45.2036392 140.956159,44.931041 141.55657,45.09269 C142.15698,45.2543389 142.666963,46.1889861 142.505314,46.7893965 L141.041727,52.2255788 Z" id="Combined-Shape"></path>
                        </g>
                    </g>
                </g>
            </g>
        </g>
    </g>
</svg>