<?xml version="1.0" encoding="UTF-8"?>
<svg width="19px" height="16px" viewBox="0 0 19 16" version="1.1" xmlns="http://www.w3.org/2000/svg" xmlns:xlink="http://www.w3.org/1999/xlink">
    <!-- Generator: Sketch 46.2 (44496) - http://www.bohemiancoding.com/sketch -->
    <title>Twitter</title>
    <desc>Created with Sketch.</desc>
    <defs></defs>
    <g id="Symbols" stroke="none" stroke-width="1" fill="none" fill-rule="evenodd">
        <g id="Box-of-Jane---Footer-1" transform="translate(-83.000000, -172.000000)" fill="#FFFFFF">
            <g id="Footer-#1" transform="translate(-9.000000, -13.000000)">
                <g id="Group-25" transform="translate(84.000000, 69.000000)">
                    <g id="Group-4">
                        <g id="Last-Col" transform="translate(0.000000, 73.000000)">
                            <g id="Social-Icons" transform="translate(8.000000, 41.000000)">
                                <path d="M18.5854744,4.09675247 C17.9130704,4.4081432 17.1962405,4.61339447 16.4606468,4.70515845 C17.2426198,4.20985886 17.8200865,3.45066715 18.0877361,2.56603498 C17.3665156,3.0149785 16.5711505,3.33266875 15.7386402,3.50432713 C15.0554523,2.73141781 14.0735133,2.28691048 13.0405554,2.28294927 C10.9494139,2.33341918 9.29445185,4.06409033 9.34241706,6.15026533 C9.34167491,6.44627054 9.37391109,6.74144122 9.43853204,7.03034228 C6.42921257,6.85610995 3.6456652,5.38140111 1.81569864,2.99180502 C1.4862192,3.58565692 1.31411286,4.25356825 1.31567189,4.9323119 C1.30573555,6.20831549 1.91974191,7.40909572 2.96106883,8.1501289 C2.370967,8.12970454 1.79525649,7.96297733 1.28592202,7.66500218 L1.28592202,7.71408559 C1.25551885,9.51728725 2.4910692,11.0970052 4.25175573,11.5060643 C3.70821921,11.6610907 3.13533685,11.6837943 2.58118581,11.5722699 C3.02893094,13.1186469 4.42306718,14.2021593 6.03560401,14.2570182 C4.74459225,15.324758 3.12080994,15.9100615 1.4438252,15.9121564 C1.14889772,15.9123864 0.85424846,15.8940866 0.56162698,15.8573656 C2.23464789,16.9885404 4.20905091,17.5936708 6.23012242,17.59469 C13.0314016,17.59469 16.750136,11.7035394 16.750136,6.59544044 C16.750136,6.4265022 16.750136,6.26098837 16.7398379,6.09547455 C17.4685844,5.54324064 18.0934591,4.86653592 18.5854744,4.09675247 L18.5854744,4.09675247 Z" id="Twitter"></path>
                            </g>
                        </g>
                    </g>
                </g>
            </g>
        </g>
    </g>
</svg>